<svg xmlns="http://www.w3.org/2000/svg" xmlns:svg="http://www.w3.org/2000/svg" id="svg6826" width="32" height="32" version="1.1" viewBox="0 0 32 32"><g id="layer1" transform="translate(0,-1020.3622)"><path id="path10478" d="m 8.0050522,1035.8591 c 0,0 7.4647418,-7.4647 10.9471728,-10.9471 1.312438,-1.3125 3.092499,-2.0498 4.948584,-2.0498 l 5.59919,0 0,5.5991 c 1.4e-5,1.8561 -0.737312,3.6362 -2.049771,4.9487 l -10.947174,10.9471" style="fill:none;fill-rule:evenodd;stroke:#fff;stroke-width:1.00000274;stroke-linecap:round;stroke-linejoin:round;stroke-miterlimit:4;stroke-dasharray:none;stroke-opacity:1"/><path style="fill:none;fill-rule:evenodd;stroke:#fff;stroke-width:1.00000262;stroke-linecap:round;stroke-linejoin:round;stroke-miterlimit:4;stroke-dasharray:none;stroke-opacity:1" id="path10480" d="m 11.994947,1043.3672 -1.319792,1.3198 a 5.9999982,5.9999982 0 0 1 -2.7874711,1.5783 l -2.3876837,0.5969 0.5969373,-2.3877 a 6.0000022,6.0000022 0 0 1 1.5781698,-2.7874 l 1.3198399,-1.3199"/><path id="path10482" d="m 13.499999,1030.3622 -4.7601038,10e-5 a 2.9999999,2.9999999 0 0 0 -2.121926,0.8793 l -4.118039,4.1206 1.50007,0 a 12.999999,12.999999 0 0 1 12.9999988,13 l 0,1.5 4.120642,-4.118 A 2.9999987,2.9999987 0 0 0 22,1043.6222 l -1e-6,-4.76" style="fill:none;fill-rule:evenodd;stroke:#fff;stroke-width:1.00000274;stroke-linecap:butt;stroke-linejoin:round;stroke-miterlimit:4;stroke-dasharray:none;stroke-opacity:1"/><path style="opacity:1;fill:none;fill-opacity:1;stroke:#fff;stroke-width:1.00000012;stroke-linecap:butt;stroke-linejoin:miter;stroke-miterlimit:4;stroke-dasharray:none;stroke-opacity:1" id="path10484" d="m 22.999998,1032.3622 a 3,3 0 0 1 -3,3 3,3 0 0 1 -3,-3 3,3 0 0 1 3,-3 3,3 0 0 1 3,3 z"/></g><metadata/></svg>